<?xml version="1.0" encoding="utf-8"?>
<!-- Generator: Adobe Illustrator 27.7.0, SVG Export Plug-In . SVG Version: 6.00 Build 0)  -->
<svg version="1.1" id="Layer_1" xmlns="http://www.w3.org/2000/svg" xmlns:xlink="http://www.w3.org/1999/xlink" x="0px" y="0px"
	 viewBox="0 0 17 17" style="enable-background:new 0 0 17 17;" xml:space="preserve">
<g id="Fonts_and_buttons">
	<path class="st0" d="M15,1.4H2C1.7,1.4,1.4,1.7,1.4,2v13c0,0.3,0.3,0.6,0.6,0.6h13c0.3,0,0.6-0.3,0.6-0.6V2
		C15.6,1.7,15.3,1.4,15,1.4z M5.5,6.6l4.3,4.3c0.1,0.1,0.2,0.2,0.4,0.2c0.1,0,0.3-0.1,0.4-0.2c0.1-0.1,0.2-0.3,0.2-0.4
		s-0.1-0.3-0.2-0.4l-0.4-0.4L12,7.9l2.4,2.4v1.9H2.6V9.6L5.5,6.6z M2.6,13.4h11.9v1H2.6V13.4z M14.5,8.8l-1.6-1.6
		c-0.2-0.2-0.5-0.3-0.8-0.3S11.5,7,11.3,7.2L9.5,8.9L6.3,5.8C6.1,5.6,5.8,5.4,5.5,5.4S4.9,5.5,4.7,5.7L2.6,7.9V2.6h11.9V8.8z
		 M1.8,15.2L1.8,15.2L1.8,15.2z"/>
</g>
</svg>
