<?xml version="1.0" encoding="utf-8"?>
<!-- Generator: Adobe Illustrator 27.2.0, SVG Export Plug-In . SVG Version: 6.00 Build 0)  -->
<svg version="1.1" id="Layer_1" xmlns="http://www.w3.org/2000/svg" xmlns:xlink="http://www.w3.org/1999/xlink" x="0px" y="0px"
	 viewBox="0 0 106.4 166.6" style="enable-background:new 0 0 106.4 166.6;" xml:space="preserve">
<style type="text/css">
	.st0{fill:#171717;}
</style>
<g>
	<path class="st0" d="M4.6,34.9c2.4-1.8,4.6-3.7,6.8-5.6c0.9-0.8,1.3-1.7,0.7-2.9C11,25.5,10,26.1,9,26.7c-2.3,1.3-4.6,2.6-6.9,3.8
		C1.3,30.9,0.6,31,0,30.8V39C1.3,37.4,2.9,36.2,4.6,34.9z"/>
	<path class="st0" d="M5.9,73.3c0.2-0.8,0.3-1.7,0.3-2.5c-0.1-1.3-0.3-2.6-0.4-4c0.3-0.1,0.6-0.2,0.8-0.2c2.2,0.1,3.8-1.1,5.1-2.6
		c0.9-1,1.3-3.3,0.6-4.3c-0.7-1.1-2-1.1-3.1-1c-0.6,0-1.3,0.1-1.9,0.3c-0.4,0.1-0.6,0.5-1.2,1.1c0.7,0.4,1.2,0.8,1.8,1.2
		c-3,1.2-5-0.6-7.7-1.3c3.7-1.1,5.4-3.4,6.2-6.5c0.4-1.5,0.5-3,0.8-4.6C7.3,48,7.4,47,6.7,46.4c-0.9-0.7-1.8-0.2-2.7,0.4
		c-0.5,0.3-0.9,0.7-1.4,1s-1.1,0.6-1.7,1C0.6,48.9,0.3,49,0,48.9v14.7c0.2,0.3,0.5,0.7,0.8,0.9c1,0.8,1.3,1.9,1.2,3.1
		c-0.1,0.9-0.2,1.8-0.3,2.7c-0.2,1-0.7,1.9-1.6,2.2v4.3c0,0,0,0,0.1,0C2.8,77.5,5.3,76,5.9,73.3z"/>
	<path class="st0" d="M1.9,25.3c-0.3-0.3-0.8-0.6-1.2-0.6c-0.2,0-0.5,0-0.7,0v2.4C0.4,27,0.8,27,1.3,27C2.2,26.9,2.6,25.9,1.9,25.3z
		"/>
	<path class="st0" d="M30.4,25.6c0.5,1.5,1.6,2.3,2.8,3.1c1.1,0.7,2.2,1.6,3.3,2.3c3.7,2.4,6.6,5.6,8.9,9.3c0.6,1,1,2.1,0.5,3.3
		c-1.6,0.4-2.1,1.5-2,3c0,1.2,0.1,2.3,0,3.5c-0.2,2.1-2,3.1-3.9,2.2c-1.5-0.7-2.9-1.5-3.7-3.2c-0.2-0.5-1.1-1-1.7-1
		c-0.5,0-1.1,0.7-1.3,1.2c-0.6,1.4-0.7,2.8-0.2,4.3c0.9,2.8,2.7,4.8,5.3,6.1c2.3,1.2,4.7,1.5,7.2,0.7c3.1-1,5.1-3.2,5.5-6.5
		c0.2-1.7,0.1-3.4,0-5.2c-0.2-2.6-0.5-5.1-0.9-7.6c-0.6-3.8-2.4-7.1-4.8-10.2c1.1-0.6,2-1,2.7-1.5c1.6-1.1,2.5-2.5,2.3-4.6
		c-0.1-0.7-0.3-1.4-1.1-1.6c-1.5-0.5-3-1-4.6-1.4c-0.2-0.1-0.7,0.1-0.8,0.3c-0.1,0.3-0.1,0.8,0.1,1c0.3,0.3,0.7,0.5,1.1,0.8
		c0.6,0.4,1.1,0.8,1.7,1.2c-2.1,2.1-4.5,2.3-6.8,0.8c-1.7-1.1-3.5-2.1-5.6-2.4C32,23,31.4,23.2,30.4,25.6z"/>
	<path class="st0" d="M13.7,6.7c1.9,1.9,3.5,3.9,4.7,6.3c0.4,0.7,0.6,1.6,1,2.3c0.7,1.2,1.7,2,3,1.9c1.9-3.5,3.6-6.9,5.4-10.2
		c0.6-1.1,1.4-2,2.2-2.9c1.2-1.3,1.6-2.7,1.1-4.1h-1.2c0.2,0.5,0.3,1.1,0.1,1.7c-2.3,0.1-3.9,1.4-5.2,3.1c-1.1,1.5-2.1,3-3.2,4.6
		c-0.2,0.3-0.5,0.6-0.6,0.8c-1.4-1.8-2.9-3.4-4.1-5.2c-1.1-1.5-1.5-3.2-1.4-5h-4.8c-0.3,1.7,0.2,3.4,1.2,4.7
		C12.5,5.4,13,6.1,13.7,6.7z"/>
	<path class="st0" d="M22.1,4.8C22,4.2,22,3.6,21.9,3c-0.2-1-0.5-2-0.7-3h-3.7C19.2,3.8,20.1,4.7,22.1,4.8z"/>
	<path class="st0" d="M36.5,81.3c-0.2-0.6-0.6-1.1-0.7-1.7c-0.3-2.5-0.6-5-0.9-7.4c-0.1-0.6,0.1-1.2-0.2-1.7c-0.9-1.3-2.7-1.7-4-0.7
		c-1.8,1.4-3.6,2.9-5.1,4.6s-2.7,3.6-2.8,6c-0.1,1.6,1,3.6,2.3,4.1c1.5,0.5,3.2,0,4.2-1.8c0.3-0.6,0.7-1.2,1.2-2
		c0.2,0.6,0.2,0.9,0.4,1.3c0.7,1.4,1.3,2.9,2.2,4.2c1.5,2.1,4.9,2.6,7,0.1c1-1.2,1.2-3.4,0.4-4.5C39.6,80.8,37.9,80.6,36.5,81.3z"/>
	<path class="st0" d="M11.1,87.7c1.1-1.4,1.3-3.2,1.6-4.9c0.1-0.6,0.2-1.2,0.3-2.1c0.6,0.7,0.9,1.2,1.3,1.6c1.7,1.6,5.2,1.2,5.6-1.3
		c0.3-1.6,0.2-3.3-0.8-4.8c-0.5-1-1.2-2.2-2.1-3.2c-1.8-2-3.8-3.8-6.5-4.5c-0.8-0.2-1.6-0.5-2.2,0.7c0.4,0.5,0.9,0.9,1.2,1.5
		c0.3,0.5,0.6,1,0.7,1.5c0.1,3.1-0.4,6.2-1,9.6c-1-1.1-1.8-0.7-2.6,0c-0.4,0.4-1,0.6-1.5,0.9c-0.7,0.5-1.3,1-1.9,1.6
		c-1,1.2-1.1,2.6-0.4,4C3.4,89.6,4.6,90,6.1,90C8.1,90,9.9,89.3,11.1,87.7z"/>
	<path class="st0" d="M27.9,49.6c-0.5-2.3-1.7-4.3-3.1-6.1c-1.8-2.2-5.2-1.9-6.7,0.4c-1.2,1.8-2.6,3.5-3.9,5.2c-0.7,1-1.5,2-1.9,3.1
		c-0.8,1.8,0.3,3.4,2.3,3.3c1.1-0.1,2.1-0.4,3.3-0.7c0,1.6,0,3,0,4.5c0,1.3,0.4,2.4,1.1,3.4c0.6,0.8,1.3,1.5,2.4,1.4
		s1.7-0.9,1.9-1.9c0.5-2.1,0.8-4.3,1.2-6.4c0.1-0.7,0-1.5,0-2.2C27.6,53.5,28.5,52.4,27.9,49.6z M21.4,61.6c-1.5-1.9-1.4-6.8,0.2-10
		C22.2,55.1,22.4,58.3,21.4,61.6z M23.1,48.2c-0.3-0.5-0.5-1-0.7-1.6c-0.2-0.5-0.5-1-1.1-0.8c-0.4,0.1-0.9,0.6-0.9,1
		c-0.3,3-2.6,4.1-4.5,5.6c-0.1-0.1-0.3-0.2-0.4-0.3c2-2.7,4-5.4,6.1-8.2c2.7,2.3,4,4.7,3.9,7.4C24.2,50.6,23.9,49.3,23.1,48.2z"/>
	<path class="st0" d="M45.8,71.2c0.9-1.2,1.7-2.4,1-4c-1.2-0.8-2.2-0.5-3.1,0.5c-0.4,0.5-1,0.7-1.6,1.2c-0.8-1.3-0.6-2.2-0.1-3.2
		c0.3-0.6,0.7-1.2,0.9-1.9c0.2-0.7,0.1-1.3-0.6-1.6c-1.1-0.4-2.2-0.8-3.5-0.2c-2.5,1.1-3.9,0.5-5.6-1.9c0.4-0.8,1.1-1.7,0.4-2.8
		c-2.5-0.6-4.9,1.5-4.5,4c0.4,2.6,2.7,5.1,5.3,5.7c0.6,0.1,1.2,0.3,1.8,0.5c0.9,4.9,2.9,7,5.9,6.4C43.8,73.7,44.9,72.6,45.8,71.2z"
		/>
	<path class="st0" d="M6,26.2c4,0.1,8.3-5.6,7.2-9.4c-0.5-1.5-1.9-2.4-3.6-2.1c0.4,0.7,1,1.2,1.2,1.9c0.5,2-0.7,3.6-1.9,5
		c-0.4,0.5-1.1,1-1.9,0.1c0.8-1.1,1.1-2.2,0.7-2.8c-0.4-0.6-1.9-0.9-3-0.4c-1.9,0.7-2.9,2.3-2.6,4.2C2.4,24.6,4.1,26.1,6,26.2z"/>
	<path class="st0" d="M28.1,16.6c-0.7,1.5,1,4,3,4.7c0.1,0,0.2,0.1,0.4,0.1c2.1,0.6,4,0.3,6-0.6c1.6-0.8,2.1-1.6,2-3.3
		c-0.1-1.3-0.4-1.7-1.6-2c-1-0.2-1.6,0.1-2.1,1.2c-0.2,0.3-0.2,0.7-0.4,1.2c-0.7-0.3-1.2-0.5-2-0.8c0.6-0.8,1-1.3,1.4-1.8
		c0.4-0.7,0.3-1.3-0.5-1.5C31.3,12.8,29.5,13.5,28.1,16.6z"/>
	<path class="st0" d="M22.2,40.5c0.4-0.5,0.6-0.9,1-1.3c1.5-1.5,1.9-3.5,1.7-5.5c-0.2-2.2-2.9-3.6-4.8-2.5c-1.5,0.9-2.5,3.5-2.1,5.4
		C18.5,39.1,19.7,40.2,22.2,40.5z M21,34.6c0.1-0.4,0.6-0.6,1-1c0.3,0.3,0.7,0.6,0.8,1c0.2,1.3,0,2.5-0.8,3.8
		C21,37.2,20.7,36,21,34.6z"/>
	<path class="st0" d="M55.3,66.9c0.5,0.2,1.4-0.1,1.9-0.4c0.7-0.4,0.6-1.2,0.4-1.9c-0.1-0.3-0.2-0.6-0.3-0.9
		c-0.2-0.6-0.5-1.3-1.2-1.2c-0.5,0.1-1.1,0.6-1.4,1c-0.3,0.4-0.3,0.9-0.5,1.7C54.5,65.8,54.8,66.6,55.3,66.9z"/>
	<path class="st0" d="M106.4,24.7c-1.1,0-2.2-0.1-3.3,0.2c-2.7,0.6-4.8,3.8-2.6,6.5c0.8,0.9,1.5,1.9,2.3,2.9
		c-0.2,0.2-0.4,0.5-0.7,0.8c-3.1,3-5.1,6.6-6.3,10.7c-0.8,2.6-0.6,5.2,0.6,7.7c1.4,2.9,3.1,5.6,6.4,6.7c0.1,0,0.1,0.1,0.1,0.1l0,0
		c1,0.1,2,0.2,3.2,0.3c-1.2,1.1-0.6,2.1,0.1,3.1c0,0,0,0,0.1,0.1V48.9c-0.3-0.1-0.6-0.3-0.9-0.6c-2.6-3-2.6-4.6-0.3-7.8
		c0.2-0.3,0.5-0.6,0.7-0.9c0.2-0.2,0.3-0.4,0.5-0.6v-8.2c-1.2-0.3-2.1-1.4-2.1-3c0.7-0.4,1.4-0.6,2.1-0.8v-2.3H106.4z"/>
	<path class="st0" d="M103.8,74.3c0.4,1.3,1.3,2.1,2.6,2.5v-4.3c-0.2,0.1-0.4,0.1-0.6,0.1C104.7,72.7,104.1,73.3,103.8,74.3z"/>
	<path class="st0" d="M64.6,0h-7.3c1.1,0.6,2.3,1.1,3.7,1.3C63.1,1.7,63.9,1.5,64.6,0z"/>
	<path class="st0" d="M46.1,1.6c1.5,0.5,3,1,4.6,1.4c0.2,0.1,0.7-0.1,0.8-0.3c0.1-0.3,0.1-0.8-0.1-1c-0.3-0.3-0.7-0.5-1.1-0.8
		C49.8,0.6,49.4,0.3,49,0h-4.1C45,0.7,45.3,1.4,46.1,1.6z"/>
	<path class="st0" d="M76,102.5c2.2,0,4-1.4,4.5-3.7c0.2-0.1,0.3-0.1,0.5-0.1c4-0.3,6.8-3.9,5.8-7.8c-0.3-1.3-1-2.5-1.6-3.6
		c-1.9-3.3-4.7-5.7-7.3-8.4c-0.4-0.4-1.1-0.6-1.7-1c-1.3,1.1-2.6,2.1-3.6,3.4c-2,2.4-3.8,5-5.6,7.5c-0.7,1-1.5,2.1-2,3.3
		c-1,2.4-0.5,4,1.8,4.8c1,0.3,1.9,0.7,2.8,1c0.9-0.6,0.9-1.1,0.2-1.7c-0.5-0.5-1.1-0.9-1.7-1.3c-0.8-0.6-0.9-1.2-0.3-2
		c1.7-2.2,3.3-4.3,5-6.5c0.2,1.5-0.1,2.9-0.2,4.3c-0.3,3.1-0.5,6.1,0.1,9.2C73,101.6,74.1,102.5,76,102.5z M78.6,84.9
		c0.5,0.6,1.1,1.1,1.5,1.7c1.1,1.7,2.2,3.3,3,5.1c1,2.1,0.2,3.7-2.2,4.9c0.3-3.5-1.9-6.2-2.3-9.4c-0.1-0.7-0.2-1.4-0.4-2
		C78.4,85,78.5,85,78.6,84.9z M76,84.6c0.1,0.5,0.3,0.9,0.3,1.2c0.3,1.8,0.5,3.6,0.8,5.3c0.3,1.3,0.2,2.6,0,3.9
		c-0.2,0.1-0.5,0.2-0.8,0.3c0.1,0.6,0.2,1.2,0.3,1.8c-0.1,0.5-0.3,1-0.5,1.5c-0.1,0.2-0.2,0.3-0.4,0.4c-0.1,0.1-0.2,0.1-0.4,0.1
		C74.3,97.4,74.6,88.8,76,84.6z"/>
	<path class="st0" d="M65.4,20.6c-1.7,1.9-1.7,4.4,0.2,6.2c0.2,0.1,0.5,0.1,0.9,0.1c-0.4-1.4-1.7-2.4-1-4c2.1,0,3.7-1.1,4.9-2.7
		c1.1-1.4,2-2.8,3-4.2c0.4-0.6,0.7-1.1,1.1-1.7c1.2,1.7,2.2,3.4,3.5,4.7c1.7,1.7,2,3.8,2,6c0,0.7-0.1,1.6-1.2,1.8
		c-0.1-0.3-0.3-0.6-0.4-0.8c-0.4-2.1-1.5-3.8-3-5.3c-0.3-0.3-0.7-0.6-1.1-0.8c-0.6-0.3-1.2,0.1-1.1,0.8c0,0.4,0.2,0.7,0.3,1.1
		c0.4,1.7,0.8,3.4,1.2,5.1c0.3,1.3,0,2.4-0.7,3.5c-0.2,0.3-0.7,0.5-1.2,0.7c-0.6-1.5-0.5-2.8-0.3-4c0.1-0.6-0.1-1.1-0.8-1.3
		c-0.6-0.2-0.9,0.2-1.2,0.6c-1,1.5-1.2,3.1-1.1,4.8c0.1,1.6,0.6,3.1,2.2,3.8c1.7,0.8,3.7,0.3,4.9-1.2c0.9-1.1,1.5-2.4,2-3.6
		c0.7-1.7,1.4-2,2.9-0.8c3.9-2.5,4.3-6.7,1.8-9.6c-0.5-0.6-1-1.2-1.5-1.7c-1.7-1.7-3.2-3.5-4.3-5.6c-0.5-0.9-0.9-1.9-1.3-2.8
		c-0.7-1.4-1.8-2-3.1-1.9c-2,3.6-3.8,7.1-5.7,10.6C66.8,19,66.1,19.8,65.4,20.6z"/>
	<path class="st0" d="M60.7,81.3c-1.1,0.6-2.3,1.1-3.5,1.6c0.1,0.6,0.1,1.2,0.2,1.9c0.7,0,1.1,0.1,1.5,0.1s0.9,0,1.3-0.2
		c7.1-1.8,12.3-5.8,14.8-13c1.3-3.9,1.3-7.8-1.1-11.4c-1.4-2.1-3.3-3.5-5.9-3.2c-2.4,0.3-4,1.8-4.9,4.1c-0.2,0.4-0.4,0.8-0.5,1.2
		c-2.1,0.3-3.1,1.8-2.5,3.6c0.3,0.9,0.9,1.3,1.8,1c0.8-0.2,1.4-0.3,2.2,0c1.2,0.4,1.6-0.3,1.7-1.5c0.1-1,0.3-2,0.8-2.9
		c0.7-1.2,1.7-1.2,2.6-0.2c1.3,1.5,1.7,3.3,1.4,5.2C69.6,73.8,66.4,78.5,60.7,81.3z"/>
	<path class="st0" d="M83.7,63.2c0.8-1.3,1.8-1.2,2.5,0.1c0.4,0.8,0.5,1.8,0.8,2.9c1.6,0.3,2.3-0.1,2.8-1.7c0.8-2.3-0.2-4.2-1.9-5.7
		c-1.4-1.2-3-1.6-4.8-0.8c-2.9,1.2-4.8,3.4-5.5,6.5c-1.5,6.4,0.4,11.9,4.9,16.6c1.7,1.7,3.7,3,6.1,3.5c1.1,0.3,2,0,2.3-0.8
		c0.3-0.7-0.1-1.4-1.1-1.9c-1.9-0.9-3.4-2.4-4.4-4.1c-2.4-4-3.1-8.2-2.3-12.8C83.1,64.4,83.4,63.7,83.7,63.2z"/>
	<path class="st0" d="M85.1,39.9c-1.4-1.1-3.3-1-5.1,0c-2.6,1.6-4,3.9-4.7,6.8c-0.1,0.6-0.3,1.2-0.5,1.9c-1-1.5-1.8-2.9-2.8-4.2
		c-1.4-1.7-3.9-2.1-6-1.4c-1.5,0.6-3,2.5-2.8,5.2c0.2,2.3,2.5,4.1,4.8,3.6c1-0.2,1.9-1.1,1.8-2c-0.1-1-0.7-1.5-1.7-1.3
		c-0.1,0-0.3,0-0.4,0c-0.7-0.3-1.1-0.8-1.1-1.6c0-0.9,0.5-1.3,1.5-1.5c1.5-0.2,2.3,0.7,2.9,1.8c1.6,2.5,2.7,5.2,2.4,8.3
		c0.8,0.6,1.4,0.4,1.9-0.4c0.3-0.4,0.4-1,0.8-1.3c0.9-0.6,1-1.4,1.2-2.3c0.4-1.7,0.8-3.5,1.4-5.2c0.4-1,1.3-1.9,2.1-2.6
		c1.5-1.1,2-0.9,2.8,1c-1.1,1.5-2.8,0.7-4.3,1.6c0.5,0.5,0.8,1.2,1.3,1.4c1.5,0.5,3.1,0.7,4.5-0.1c0.9-0.6,1.7-1.5,2.1-2.4
		C87.9,43.7,86.7,41.1,85.1,39.9z"/>
	<path class="st0" d="M82.3,8c0.5,1.4,1.8,2.2,3.6,2c-0.2-0.4-0.5-0.8-0.6-1.1C85,8.3,84.6,7.6,84.6,7c0.1-1.6,1-3,2.2-4.1
		c0.5-0.5,1.1-0.6,1.6,0.1c0,0.1,0,0.3-0.1,0.4c-0.9,0.6-1,1.6-0.5,2.4c0.4,0.8,1.4,0.8,2.2,0.7c2.1-0.2,3.6-2.2,3.4-4.1
		c-0.1-0.9-0.4-1.6-1-2.3h-6.9c-2.2,1.8-3.8,4.7-3.4,7.3C82.2,7.5,82.2,7.8,82.3,8z"/>
	<path class="st0" d="M57.6,9.3c1.1,0.3,1.7,0,2.3-1.2c0.2-0.3,0.3-0.7,0.4-1.1c0.7,0.3,1.2,0.5,1.9,0.8c-0.6,0.7-1,1.2-1.3,1.8
		c-0.5,0.7-0.3,1.3,0.4,1.5c2.6,0.8,4.5,0.2,5.9-2.8c0.7-1.4-0.7-4-2.6-4.7c-0.2-0.1-0.4-0.1-0.6-0.1c-2.2-0.6-4.3-0.3-6.3,0.7
		c-1.3,0.7-1.9,1.7-1.7,3.1C56.2,8.6,56.4,9,57.6,9.3z"/>
	<path class="st0" d="M96.3,74c1.3,0.1,2-0.7,2.1-2.6c0.1-0.9-0.5-1.5-1.7-1.6c-1.3-0.1-2.5,1-2.7,2.4C93.9,73.2,94.8,73.8,96.3,74z
		"/>
	<path class="st0" d="M22.8,91.5c-0.4-1.9-1.6-2.8-3.5-2.8c-1.3,0-2.3,0.6-3.1,1.7c-0.5,0.7-0.9,1.4-1.3,2.1c-3,0.1-5.8,2.4-6.4,5.3
		c-0.1,0.6-0.1,1.3,0,1.9c0.2,1.8,1,3.3,2.1,4.7c2.2,2.7,4.6,5.3,6.9,8c0.4,0.5,1.2,0.7,1.8,1.1c1.3-1.2,2.6-2.1,3.6-3.3
		c2-2.5,3.9-5.2,5.8-7.8c0.7-1,1.4-2,1.9-3.1c1-2.1,0.3-3.7-1.8-4.7c-0.7-0.3-1.4-0.6-2.1-0.9c-0.9-0.4-1.3,0-1.5,0.8
		c0.1,0.2,0.2,0.3,0.3,0.4c0.6,0.5,1.2,1,1.8,1.5c1,0.9,1.2,1.2,0.4,2.2c-1.6,2.1-3.3,4.2-4.9,6.3c-0.2-1.5,0.1-2.8,0.2-4.2
		C23.3,97.6,23.5,94.6,22.8,91.5z M16.8,106.3c-2.1-2.1-3.8-4.4-4.7-7.2c-0.6-1.8,0.2-3.2,2-4.2c0.9,3.1,1.8,6.1,2.7,9.2
		c0.2,0.7,0.3,1.4,0.4,2C17.1,106.2,16.9,106.2,16.8,106.3z M19.8,105.8c-0.1,0.2-0.1,0.5-0.3,1c-0.2-0.7-0.3-1-0.4-1.4
		c-0.3-1.8-0.5-3.5-0.8-5.3c-0.3-2-0.2-4.1,0.3-6.1c0.3-1.1,0.3-1.1,1.4-1.9c0.9,0.6,0.7,1.6,0.7,2.4
		C20.7,98.3,20.6,102.1,19.8,105.8z"/>
	<path class="st0" d="M29,164.2c0.2,0.9,0.7,1.6,1,2.4h1.2c-0.2-0.6-0.5-1.3-1.1-1.9C29.9,164.5,29.5,164.4,29,164.2z"/>
	<path class="st0" d="M23.9,156.4c-1.7-0.7-3.5-0.5-4.8,0.9c-0.9,1-1.7,2.3-2.1,3.6c-0.4,1.1-0.8,1.8-2,1.9c-0.3-0.3-0.6-0.6-1-0.9
		c-2,1.4-3,3-3.2,4.6h4.8c0-0.5,0.1-0.9,0.2-1.4c0.1-0.3,0.5-0.5,0.9-0.8c0.3,0.8,0.6,1.6,0.9,2.2h3.7c-0.2-0.7-0.3-1.4-0.5-2.1
		c-0.3-1.3,0-2.4,0.7-3.5c0.2-0.4,0.7-0.5,1.2-0.9c0.6,1.5,0.6,2.7,0.3,4c-0.1,0.6,0,1.1,0.7,1.4c0.7,0.3,1-0.2,1.4-0.7
		c1-1.5,1.1-3.1,1.1-4.8C25.9,158.5,25.4,157.1,23.9,156.4z"/>
	<path class="st0" d="M36.4,106.4c-0.4,0-0.8,0-1.1,0.1c-4.8,1.2-9,3.4-12,7.5c-2.9,3.9-4.6,8.3-3.4,13.3c0.6,2.4,1.8,4.5,4,5.9
		c1.5,1,3.2,1.3,5,0.5c3.1-1.4,4.6-4.8,4-8c-0.1-0.4-0.4-0.8-0.7-1.1c-0.5-0.5-1.3-0.7-1.9-0.3c-0.6,0.3-0.6,0.8-0.5,1.5
		c0.3,1.2-0.3,2.2-0.9,3c-0.8,1-1.6,1-2.4,0.1c-1.2-1.4-1.7-3.1-1.5-4.8c0.7-5.6,3.3-10.2,8.3-13.2c1.6-1,3.4-1.7,5.2-2.6
		c-0.1-0.6-0.2-1.1-0.3-1.8C37.3,106.4,36.8,106.4,36.4,106.4z"/>
	<path class="st0" d="M12.5,133.2c2.8-1.2,4.6-3.4,5.3-6.4c1.3-5.5,0.1-10.5-3.5-15c-2-2.5-4.5-4.4-7.7-5.2c-1-0.3-1.8,0.1-2.1,0.8
		c-0.3,0.7,0.1,1.4,1.1,2c2,1,3.5,2.5,4.6,4.5c2.2,3.9,2.9,8,2.1,12.4c-0.1,0.6-0.3,1.2-0.6,1.6c-0.4,0.5-1,1.1-1.4,1
		c-0.5,0-1.1-0.7-1.3-1.2c-0.3-0.7-0.4-1.6-0.6-2.5c-1.7-0.4-2.5,0.1-3,1.8c-0.7,2.4,0.4,4.2,2.1,5.6C9,133.7,10.7,134,12.5,133.2z"
		/>
	<path class="st0" d="M27,139.5c-0.5,0.2-1.1,0.7-1.3,1.3c-0.5,0.9,0.2,1.7,1.4,1.9c1.3,0.2,1.8,0.8,1.7,1.8c-0.2,1-0.8,1.3-2,1.3
		c-1.2-0.1-1.8-0.9-2.4-1.8c-1.6-2.5-2.7-5.2-2.4-8.3c-0.8-0.7-1.4-0.4-1.9,0.4c-0.3,0.5-0.5,1.1-0.9,1.4c-0.7,0.5-0.8,1.2-1,2
		c-0.4,1.7-0.7,3.5-1.4,5.2c-0.4,1.1-1.3,2.1-2.2,2.8c-1.6,1.2-2.2,0.9-2.7-1.2c1-1.2,2.6-0.8,3.8-1.2c0.3-0.9-0.2-1.3-0.8-1.7
		c-1.5-0.8-4.2-0.5-5.5,0.6c-1.9,1.6-1.6,4.2-0.4,5.9c1.6,2.2,3.8,2.8,6,1.6c2.7-1.6,4.3-4,5-7c0.1-0.6,0.3-1.2,0.5-2.1
		c0.5,0.9,0.7,1.4,1.1,2c0.6,1,1.2,2,2,2.8c2.6,2.4,7,1.5,8.1-1.8c0.3-1,0.3-2.2,0.2-3.2C31.7,140.3,28.9,138.7,27,139.5z"/>
	<path class="st0" d="M0,117.4v3.6c0.8-0.5,1.4-1.3,1.4-2.2C1.4,118.2,0.9,117.7,0,117.4z"/>
	<path class="st0" d="M98.9,131.3c-0.1,0.1-0.2,0.2-0.2,0.4c-0.5-0.2-1.2-0.6-1.7-0.6c-0.4,0-0.8,0-1.4-0.1c1.6-1.5,0.5-2.5-0.3-3.6
		c-0.2-0.3-0.4-0.5-0.6-0.7c-1-0.8-1.2-1.8-1.1-2.9c0.1-1,0.2-1.9,0.4-2.9c0.2-1.2,0.8-2.1,2.1-2.2c1.2-0.1,1.8-0.7,2.1-1.8
		c-0.4-1.3-1.3-2.1-2.6-2.5c-2.8-0.7-5.3,0.7-6,3.5c-0.2,0.8-0.3,1.7-0.2,2.5c0.1,1.3,0.3,2.6,0.4,3.9c-0.2,0.1-0.2,0.2-0.3,0.2
		c-0.2,0-0.4,0.1-0.6,0.1c-2.3-0.1-3.8,1.2-5.2,2.7c-0.8,0.9-1,3.4-0.4,4.2c0.7,0.9,1.9,1,3,1c0.3,0,0.5,0,0.8,0
		c0.7-0.3,1.3-0.6,2-0.9c-0.3-0.5-0.7-1.1-1.1-1.7c2.7-1.2,4.7,0.7,7.4,1.4c-3.6,1.1-5.4,3.3-6.1,6.4c-0.4,1.6-0.5,3.2-0.8,4.7
		c-0.2,0.9-0.3,1.9,0.5,2.5c0.9,0.7,1.8,0.2,2.7-0.4c0.5-0.3,0.9-0.7,1.4-1s1.1-0.6,1.7-1c0.8-0.5,1.3-0.2,1.8,0.4
		c2.6,3,2.6,4.6,0.3,7.8c-0.2,0.3-0.5,0.6-0.7,0.9c-1.4,1.8-3.2,3.2-5.1,4.6c-2.4,1.8-4.6,3.7-6.8,5.6c-0.9,0.8-1.3,1.7-0.8,2.9
		c1.5,0.6,1.6,0.6,3.4-0.3c2.3-1.2,4.4-2.6,6.7-3.8c2.1-1.1,4.1,0.2,4.3,2.7c-1,0.5-2,0.9-3.2,0.9c-0.4,0-0.9,0.3-1,0.6
		s0.1,0.9,0.3,1.2c0.2,0.3,0.7,0.5,1,0.5c1.3,0,2.7,0.2,4-0.1c2.7-0.6,4.7-3.8,2.7-6.4c-0.8-1-1.6-2.1-2.6-3.3
		c0.5-0.4,1.1-0.8,1.6-1.4c2.9-3,4.7-6.6,5.7-10.5c0.2-0.8,0.3-1.6,0.3-2.4v-0.3c-0.1-2.6-1-5.2-2.5-7.2
		C103.5,134.4,99.9,130.7,98.9,131.3z"/>
	<path class="st0" d="M62.3,162.6c-1.1-0.7-2.2-1.6-3.3-2.3c-3.7-2.4-6.6-5.6-8.9-9.3c-0.6-1-0.9-2-0.5-3.3c1.6-0.3,2.1-1.4,2.1-2.9
		c0-1.2-0.1-2.4,0-3.7c0.2-2,2-3.1,3.9-2.2c1.5,0.7,2.9,1.5,3.7,3.2c0.2,0.5,1.1,1,1.7,1c0.5,0,1.1-0.7,1.3-1.2
		c0.6-1.4,0.7-2.8,0.2-4.3c-0.9-2.8-2.7-4.8-5.3-6.1c-2.3-1.2-4.7-1.6-7.2-0.7c-4,1.4-5.8,4.1-5.8,9.2c0,2.2,0.3,4.5,0.5,6.7
		c0.5,4,1.3,8,3.9,11.3c0.6,0.7,0.9,1.6,1.4,2.4c-1,0.5-1.8,0.9-2.6,1.4c-1.6,1.1-2.5,2.5-2.3,4.6l0,0H49c-0.2-0.1-0.3-0.2-0.5-0.3
		c2-2,4.6-2.3,6.7-0.9c0.7,0.4,1.4,0.9,2.1,1.2h7.3c0.1-0.2,0.2-0.5,0.4-0.8C64.6,164.2,63.5,163.4,62.3,162.6z"/>
	<path class="st0" d="M55.3,105.2c-0.9,1.2-1,3.4-0.2,4.3c0.7,0.9,2.5,1.1,3.9,0.4c0.3,0.6,0.7,1.3,0.8,1.9c0.3,2.5,0.5,4.9,0.8,7.4
		c0.1,0.5,0,1.2,0.3,1.6c1.3,1.5,2.6,1.7,4.2,0.4c1.6-1.2,3.2-2.6,4.6-4.1c1.6-1.8,3-3.8,3.1-6.4c0.1-1.6-1.1-3.6-2.4-4
		c-1.5-0.5-3,0.1-4,1.7c-0.4,0.6-0.7,1.2-1.3,2.2c-0.5-2.5-1.3-4.4-2.8-5.9C60.5,103,57.4,102.6,55.3,105.2z"/>
	<path class="st0" d="M85.9,112.3c0.1-0.8,0.2-1.6,0.4-2.7c1,1.1,1.7,0.8,2.5,0.1c0.5-0.4,1.1-0.6,1.6-1c0.7-0.5,1.3-1,1.8-1.7
		c0.9-1.2,1-2.6,0.4-4c-0.7-1.4-1.9-1.8-3.3-1.8c-3.2,0.1-5.5,1.8-6.2,4.9c-0.3,1.3-0.5,2.6-0.8,4.3c-0.6-0.7-0.9-1.2-1.3-1.6
		c-1-0.9-2.3-1.1-3.6-0.8c-1,0.3-1.9,1-2,2.1c-0.2,1.7-0.2,3.5,0.9,5c0.7,1,1.3,2.1,2.1,3c1.8,2,3.8,3.8,6.5,4.6
		c0.8,0.2,1.6,0.5,2.3-0.5c-0.3-0.4-0.5-0.9-0.8-1.2c-0.9-0.7-1.2-1.6-1.1-2.7C85.5,116.3,85.7,114.3,85.9,112.3z"/>
	<path class="st0" d="M83,136.5c-0.7-0.9-1.6-1-2.6-0.8c-0.9,0.1-1.8,0.4-2.8,0.7c0-1.6,0-3.1,0-4.7c0-1.6-0.6-2.9-1.7-4
		c-1.2-1.2-2.7-1-3.5,0.6c-0.5,1-0.8,2-1,3.1c-0.3,2-0.4,3.9-0.6,6c-0.8,0.2-1.6,0.2-2.2,0.5c-1.4,0.7-1.4,2.1-1.1,3.4
		c0.5,2.5,1.7,4.5,3.3,6.4c1.8,2.1,5.1,1.8,6.5-0.5c1.2-1.9,2.7-3.6,4-5.4c0.6-0.8,1.2-1.7,1.7-2.6C83.6,138.4,83.7,137.5,83,136.5z
		 M74.3,129.8c1.1,3.2,1.1,6.4-0.3,9.6C73.2,136.1,73.1,133,74.3,129.8z M74,147.4c-2.5-2-3.9-4.4-4.3-7.4c1.1,0.1,1.3,0.9,1.7,1.5
		c0.6,0.8,1.1,1.7,1.4,2.7c0.4,1.2,1,1.4,2.1,1.2C74.6,146,74.3,146.6,74,147.4z M76.7,143.2c-0.6,0.7-1.2,1.4-1.8,2.1
		c0-1.3,0.1-2.6,1.2-3.6c1.1-1.1,2-2.5,3.8-2.7C78.8,140.4,77.8,141.8,76.7,143.2z"/>
	<path class="st0" d="M60.9,124.1c-0.6-0.1-1.1-0.3-1.7-0.4c-0.1-0.3-0.2-0.6-0.2-0.8c0.1-1.5-0.7-2.7-1.5-3.9
		c-1-1.5-2.7-2.1-4.4-1.7c-1.6,0.4-2.7,1.4-3.6,2.7c-0.8,1.2-1.8,2.4-1.1,4c1.1,0.7,2.1,0.6,3-0.5c0.4-0.5,1.1-0.8,1.7-1.2
		c0.7,1.6,0.7,1.9,0.1,3.1c-0.3,0.6-0.7,1.2-0.9,1.9c-0.3,1-0.1,1.4,0.9,1.8c1.1,0.4,2.2,0.6,3.4,0.1c2.4-1,4.1-0.3,5.5,2.1
		c-0.6,0.8-0.9,1.6-0.4,2.6c2.6,0.7,5.1-1.5,4.5-4.1C65.8,127.4,64.2,124.7,60.9,124.1z"/>
	<path class="st0" d="M88.9,165.1c-1.2,0.1-2.3,0.7-3.3,1.5h6.9C91.6,165.5,90.3,164.9,88.9,165.1z"/>
	<path class="st0" d="M74.5,150.8c-0.4-0.1-1.2-0.2-1.4,0.1c-1.4,1.6-2.6,3.3-2.5,5.1c-0.1,2.4,0.6,3.5,2.2,4c1.9,0.5,3,0.1,4-1.7
		c0.3-0.6,0.6-1.3,0.8-2C78,154.1,76.5,151.4,74.5,150.8z M74.4,156.8c-0.1,0.3-0.6,0.8-0.9,0.7s-0.7-0.6-0.8-0.9
		c-0.2-1.3-0.1-2.5,0.9-3.8C74.4,154.2,74.8,155.4,74.4,156.8z"/>
	<path class="st0" d="M103.4,120c0,0.9,0.7,1.4,1.9,1.4c0.4,0,0.8-0.1,1.2-0.4v-3.6c-0.3-0.1-0.7-0.2-1-0.2
		C104.2,117.2,103.4,118.3,103.4,120z"/>
</g>
</svg>
