<?xml version="1.0" encoding="utf-8"?>
<!-- Generator: Adobe Illustrator 27.7.0, SVG Export Plug-In . SVG Version: 6.00 Build 0)  -->
<svg version="1.1" id="Layer_1" xmlns="http://www.w3.org/2000/svg" xmlns:xlink="http://www.w3.org/1999/xlink" x="0px" y="0px"
	 viewBox="0 0 17 17" style="enable-background:new 0 0 17 17;" xml:space="preserve">

<g>
	<path class="st0" d="M11.5,8c-2,0-4,0.6-4.2,1.7c0,0.1,0,0.1,0,0.2v0.5v0.9v0.8V13v0.4c0,0.1,0,0.1,0,0.2c0.2,1.1,2.2,1.7,4.2,1.7
		s4-0.6,4.2-1.7c0-0.1,0-0.1,0-0.2V9.8V9.7C15.5,8.6,13.5,8,11.5,8z M14.9,13.4c0,0.3-1.2,1-3.4,1s-3.4-0.7-3.4-1v-0.6
		c0.8,0.5,2.1,0.7,3.4,0.7s2.6-0.2,3.4-0.7V13.4z M14.9,11.6c0,0.3-1.2,1-3.4,1s-3.4-0.7-3.4-1V11c0.8,0.5,2.1,0.7,3.4,0.7
		s2.6-0.2,3.4-0.7V11.6z M11.5,10.9c-2.2,0-3.4-0.7-3.4-1c0-0.3,1.2-1,3.4-1s3.4,0.7,3.4,1C14.9,10.2,13.7,10.9,11.5,10.9z"/>
	<path class="st0" d="M6.6,10.8c-0.2,0-0.5,0-0.8,0c-2.2,0-3.4-0.7-3.4-1V9.3C3,9.7,4.3,10,5.6,10c0.4,0,0.7,0,0.9,0
		s0.4-0.2,0.4-0.5c0-0.2-0.2-0.4-0.4-0.4s-0.5,0-0.8,0c-2.2,0-3.4-0.7-3.4-1V7.5C3,8,4.3,8.2,5.6,8.2c2,0,4-0.6,4.2-1.7
		c0-0.1,0-0.1,0-0.2V2.7c0-0.1,0-0.1,0-0.2C9.6,1.4,7.6,0.8,5.6,0.8s-4,0.6-4.2,1.7c0,0.1,0,0.1,0,0.2v0.6v0.9V5v1v0.8v0.9v0.9v0.9
		v0.9v0.9v0.3c0,0.1,0,0.1,0,0.2c0.2,1.1,2.2,1.7,4.2,1.7c0.4,0,0.7,0,0.9,0c0.1,0,0.2-0.1,0.3-0.2c0.1-0.1,0.1-0.2,0.1-0.3
		c0-0.2-0.2-0.4-0.4-0.4s-0.5,0-0.8,0c-2.2,0-3.4-0.7-3.4-1V11c0.8,0.5,2.1,0.7,3.4,0.7c0.4,0,0.7,0,0.9,0c0.1,0,0.2-0.1,0.3-0.2
		C7,11.4,7,11.3,7,11.2C7,11,6.8,10.8,6.6,10.8z M5.6,1.8c2.2,0,3.4,0.7,3.4,1s-1.3,1-3.4,1c-2.2,0-3.4-0.7-3.4-1S3.4,1.8,5.6,1.8z
		 M2.1,4.5V4C3,4.4,4.3,4.7,5.6,4.7C6.9,4.7,8.2,4.5,9,4v0.6c0,0,0,0.1-0.1,0.2C8.6,5,7.4,5.5,5.5,5.5C3.3,5.5,2.1,4.8,2.1,4.5z
		 M2.2,6.3V5.7C3,6.2,4.3,6.4,5.6,6.4c1.3,0,2.6-0.2,3.4-0.7v0.6c0,0.3-1.2,1-3.4,1C3.4,7.3,2.2,6.6,2.2,6.3z"/>
</g>
</svg>
